Coordinates
version=1
nRows=11
nColumns=46
inDegrees=yes

Units are S.I. units (second, meters, Newtons, ...)
Angles are in degrees.

endheader
time	pelvis_tilt	pelvis_list	pelvis_rotation	pelvis_tx	pelvis_ty	pelvis_tz	bb_angle	bb_tx	bb_ty	bb_tz	hip_flexion_r	hip_adduction_r	hip_rotation_r	knee_angle_r	knee_angle_r_beta	ankle_angle_r	subtalar_angle_r	mtp_angle_r	crank_angle_r	hip_flexion_l	hip_adduction_l	hip_rotation_l	knee_angle_l	knee_angle_l_beta	ankle_angle_l	subtalar_angle_l	mtp_angle_l	crank_angle_l	lumbar_extension	lumbar_bending	lumbar_rotation	arm_flex_r	arm_add_r	arm_rot_r	elbow_flex_r	pro_sup_r	wrist_flex_r	wrist_dev_r	arm_flex_l	arm_add_l	arm_rot_l	elbow_flex_l	pro_sup_l	wrist_flex_l	wrist_dev_l
      2.50500000	    -17.96044931	      1.37554653	      4.29093301	      0.33626767	      1.11585273	     -0.23957885	      0.00000000	      0.50000000	      0.00000000	      0.25000000	     44.61974876	     -5.86425736	     -2.69906511	     48.70528471	      0.85006758	     -1.19235766	    -15.12801522	      0.00000000	      0.00000000	     61.50160924	     -2.95014695	      5.36097429	    103.98489772	      1.81487884	     -7.64998471	     -7.17629207	      0.00000000	      0.00000000	    -59.39502550	      8.81165786	     -1.93817205	     51.56036185	    -10.76252854	     22.84234045	     75.90774519	     48.55639258	      0.00000000	      0.00000000	     51.71732294	    -21.69417438	     20.77496350	     68.62470453	     46.99514659	      0.00000000	      0.00000000
      2.51000000	    -17.70488569	      1.59349116	      4.45123041	      0.33703083	      1.11469448	     -0.23993856	      0.00000000	      0.50000000	      0.00000000	      0.25000000	     43.74201337	     -6.19479337	     -2.88603138	     48.07841668	      0.83912667	     -1.73520179	    -14.94267261	      0.00000000	      0.00000000	     62.04665537	     -2.70090356	      5.30605139	    105.11087030	      1.83453077	     -7.31815325	     -7.21645933	      0.00000000	      0.00000000	    -59.27815260	      8.53290060	     -2.16777783	     51.11322219	    -10.91873415	     22.73988408	     75.71153759	     48.54599990	      0.00000000	      0.00000000	     51.70303593	    -21.55865601	     20.99719921	     68.43813169	     47.00164044	      0.00000000	      0.00000000
      2.51500000	    -17.32364964	      1.70068005	      4.56236974	      0.33778860	      1.11383243	     -0.24020306	      0.00000000	      0.50000000	      0.00000000	      0.25000000	     42.70457616	     -6.38355301	     -3.16166714	     47.40337620	      0.82734499	     -2.49292735	    -14.89745990	      0.00000000	      0.00000000	     62.44807187	     -2.57542844	      5.36211565	    106.21891866	      1.85386986	     -6.75558336	     -6.87832868	      0.00000000	      0.00000000	    -59.17674726	      8.27041720	     -2.17789945	     50.74561909	    -11.00660822	     22.16364157	     75.25844996	     48.53835528	      0.00000000	      0.00000000	     52.19675339	    -21.18656823	     21.80263948	     67.44485556	     46.98131581	      0.00000000	      0.00000000
      2.52000000	    -17.14625742	      1.93187984	      4.67945487	      0.33850245	      1.11292940	     -0.24056284	      0.00000000	      0.50000000	      0.00000000	      0.25000000	     41.89932557	     -6.66767761	     -3.25524460	     46.76772584	      0.81625080	     -3.07089539	    -14.66603844	      0.00000000	      0.00000000	     63.02540426	     -2.33262797	      5.24326873	    107.22879781	      1.87149557	     -6.38482944	     -6.95839437	      0.00000000	      0.00000000	    -58.98170446	      7.92699173	     -2.47654423	     50.35174335	    -11.16417053	     22.09014366	     75.07217075	     48.52447416	      0.00000000	      0.00000000	     52.11965648	    -21.09696358	     21.96801188	     67.34997781	     46.99387613	      0.00000000	      0.00000000
      2.52500000	    -16.97863044	      2.11508399	      4.78520307	      0.33916753	      1.11217846	     -0.24087500	      0.00000000	      0.50000000	      0.00000000	      0.25000000	     41.10049198	     -6.90785827	     -3.40973642	     46.12854010	      0.80509490	     -3.68432890	    -14.39724955	      0.00000000	      0.00000000	     63.60877847	     -2.12825945	      5.17498662	    108.19520255	      1.88836252	     -6.01215664	     -7.01840035	      0.00000000	      0.00000000	    -58.80321566	      7.55578567	     -2.78931413	     50.05506304	    -11.29833800	     22.00757070	     74.87303919	     48.49963754	      0.00000000	      0.00000000	     52.07965044	    -21.00892669	     22.11055588	     67.27495323	     47.00264460	      0.00000000	      0.00000000
      2.53000000	    -16.63459578	      2.10459999	      5.00221577	      0.33984771	      1.11203656	     -0.24133168	      0.00000000	      0.50000000	      0.00000000	      0.25000000	     39.96819484	     -7.02243685	     -3.81948855	     45.22500162	      0.78932518	     -4.77991235	    -14.64161173	      0.00000000	      0.00000000	     64.00457427	     -1.93644439	      5.40029301	    109.11810067	      1.90447013	     -5.17741627	     -6.54664495	      0.00000000	      0.00000000	    -58.76784233	      7.41949213	     -2.82374344	     49.84327866	    -11.31260888	     21.52529059	     74.02089982	     48.39873183	      0.00000000	      0.00000000	     52.36623191	    -20.79448812	     22.84593599	     66.65547962	     47.01530522	      0.00000000	      0.00000000
      2.53500000	    -16.68217531	      2.36226008	      5.05910091	      0.34043311	      1.11140495	     -0.24164387	      0.00000000	      0.50000000	      0.00000000	      0.25000000	     39.41460780	     -7.30452072	     -3.81941172	     44.63619947	      0.77904865	     -5.20114699	    -14.26205188	      0.00000000	      0.00000000	     64.76186984	     -1.70375708	      5.15282138	    109.95061782	      1.91900030	     -4.95148834	     -6.58706976	      0.00000000	      0.00000000	    -58.48654295	      6.97174597	     -3.13427658	     49.43546934	    -11.29318401	     21.18588921	     74.00110408	     48.28884635	      0.00000000	      0.00000000	     52.23807346	    -20.61996272	     22.59992063	     66.80952994	     46.95593610	      0.00000000	      0.00000000
      2.54000000	    -16.37601872	      2.34952053	      5.30128975	      0.34108828	      1.11171181	     -0.24219773	      0.00000000	      0.50000000	      0.00000000	      0.25000000	     38.25215654	     -7.42524599	     -4.34256968	     43.64927753	      0.76182361	     -6.37998097	    -14.37977895	      0.00000000	      0.00000000	     65.18319415	     -1.42911246	      5.35455342	    110.72545714	      1.93252379	     -4.54335637	     -6.62765619	      0.00000000	      0.00000000	    -58.50057030	      6.85300169	     -3.25438065	     49.31767203	    -11.43122231	     21.12018443	     73.26624439	     48.22586418	      0.00000000	      0.00000000	     52.40449196	    -20.52689042	     23.31485211	     66.29171752	     46.97109823	      0.00000000	      0.00000000
      2.54500000	    -16.41121553	      2.52732976	      5.37367004	      0.34162908	      1.11175982	     -0.24256415	      0.00000000	      0.50000000	      0.00000000	      0.25000000	     37.58894029	     -7.64921511	     -4.49038477	     42.83991279	      0.74769753	     -7.18826306	    -14.02005681	      0.00000000	      0.00000000	     65.86698077	     -1.20083108	      5.21679778	    111.39835008	      1.94426799	     -3.99950096	     -6.75211030	      0.00000000	      0.00000000	    -58.29020154	      6.44877915	     -3.54175340	     49.06800948	    -11.54223840	     21.09661618	     73.04318086	     48.20451827	      0.00000000	      0.00000000	     52.46237396	    -20.48092971	     23.45948520	     66.21427775	     46.97901681	      0.00000000	      0.00000000
      2.55000000	    -16.44045877	      2.65334585	      5.47491548	      0.34211910	      1.11207959	     -0.24292997	      0.00000000	      0.50000000	      0.00000000	      0.25000000	     36.87010451	     -7.83529641	     -4.69376778	     41.93091310	      0.73183249	     -8.12856491	    -13.68191636	      0.00000000	      0.00000000	     66.55092205	     -0.96634898	      5.13773093	    112.00687775	      1.95488880	     -3.51878034	     -6.82669854	      0.00000000	      0.00000000	    -58.11211435	      6.07801109	     -3.81606887	     48.87070025	    -11.65769747	     21.03088165	     72.75545675	     48.16734451	      0.00000000	      0.00000000	     52.51457587	    -20.37896925	     23.64316553	     66.14049926	     46.99071658	      0.00000000	      0.00000000
      2.55500000	    -16.22263856	      2.59674732	      5.63494447	      0.34263809	      1.11320579	     -0.24329414	      0.00000000	      0.50000000	      0.00000000	      0.25000000	     35.73311334	     -7.81997566	     -5.11668221	     40.73005934	      0.71087364	     -9.63294308	    -13.97729462	      0.00000000	      0.00000000	     66.96326410	     -0.79806133	      5.31092833	    112.54977075	      1.96436407	     -2.86277207	     -6.55427482	      0.00000000	      0.00000000	    -58.20302603	      5.90077225	     -3.79343767	     48.98312290	    -11.60510467	     20.69046501	     71.65362773	     48.03605115	      0.00000000	      0.00000000	     52.97489250	    -20.17174250	     24.42138807	     65.47495776	     46.99115781	      0.00000000	      0.00000000
